<svg xmlns="http://www.w3.org/2000/svg" viewBox="0 0 1257 116" width="1257" height="116">
	<defs>
		<clipPath clipPathUnits="userSpaceOnUse" id="cp1">
			<path d="M0 0L1257 0L1257 116L0 116Z" />
		</clipPath>
	</defs>
	<style>
		tspan { white-space:pre }
		.shp0 { fill: #cc9900 } 
		.shp1 { fill: none;stroke: #cc9900;stroke-linecap:round;stroke-width: 8 } 
	</style>
	<g id="Page 1" clip-path="url(#cp1)">
		<path id="Path 1" class="shp0" d="M302.11 79.74L0 75.74L302.11 71.74C304.32 71.71 306.14 73.47 306.17 75.68C306.2 77.89 304.43 79.71 302.22 79.74C302.19 79.74 302.14 79.74 302.11 79.74ZM955.31 71.74L1257.42 75.74L955.31 79.74C953.1 79.77 951.28 78 951.26 75.79C951.23 73.58 952.99 71.77 955.2 71.74C955.23 71.74 955.28 71.74 955.31 71.74Z" />
		<path id="Path 2" class="shp1" d="M302.11 75.74L480.07 75.74C482.19 75.74 484.23 74.9 485.73 73.4L508.77 50.35C511.9 47.23 516.96 47.23 520.09 50.35L579.39 109.66C582.52 112.78 587.58 112.78 590.71 109.66L620.39 79.97C623.52 76.85 623.52 71.78 620.39 68.66L601.44 49.7C598.31 46.58 593.25 46.58 590.12 49.7L572.44 67.39C569.31 70.51 569.31 75.58 572.44 78.7L577.73 83.99C580.85 87.11 585.91 87.11 589.04 83.99L594.7 78.33C597.83 75.2 597.83 70.14 594.7 67.01L575.82 48.13L562.8 35.11C559.68 31.99 554.61 31.99 551.49 35.11L528.17 58.44L515.06 71.54C511.92 74.68 511.94 79.78 515.1 82.9L517.97 85.73C521.1 88.81 526.14 88.79 529.25 85.69L584.76 30.17L608.81 6.12C611.94 3 617 3 620.12 6.12L641.79 27.79C644.92 30.91 644.92 35.98 641.79 39.1L628.71 52.19L615.63 39.1C612.5 35.98 612.5 30.91 615.63 27.79L637.3 6.12C640.42 3 645.49 3 648.61 6.12L672.66 30.17L728.18 85.69C731.28 88.79 736.32 88.81 739.45 85.73L742.32 82.9C745.48 79.78 745.5 74.68 742.36 71.54L729.25 58.44L705.93 35.11C702.81 31.99 697.74 31.99 694.62 35.11L681.6 48.13L662.72 67.01C659.59 70.14 659.59 75.2 662.72 78.33L668.38 83.99C671.51 87.11 676.57 87.11 679.7 83.99L684.98 78.7C688.11 75.58 688.11 70.51 684.98 67.39L667.3 49.7C664.17 46.58 659.11 46.58 655.98 49.7L637.03 68.66C633.9 71.78 633.9 76.85 637.03 79.97L666.72 109.66C669.84 112.78 674.9 112.78 678.03 109.66L737.33 50.35C740.46 47.23 745.52 47.23 748.65 50.35L771.69 73.4C773.19 74.9 775.23 75.74 777.35 75.74L955.31 75.74" />
	</g>
</svg>