<svg xmlns="http://www.w3.org/2000/svg" viewBox="0 0 1165 215" width="1165" height="215">
	<defs>
		<clipPath clipPathUnits="userSpaceOnUse" id="cp1">
			<path d="M0 0L1165 0L1165 215L0 215Z" />
		</clipPath>
	</defs>
	<style>
		tspan { white-space:pre }
		.shp0 { fill: none;stroke: #fff;stroke-width: 8 } 
		.shp1 { fill: #fff } 
	</style>
	<g id="Page 1" clip-path="url(#cp1)">
		<path id="Path 1" class="shp0" d="M597.36 56.27L583.21 70.41L569.07 56.27L583.21 42.12L597.36 56.27ZM613.68 156.22L583.21 186.69L552.75 156.22L583.21 125.76L613.68 156.22Z" />
		<path id="Path 2" class="shp1" d="M1162.81 113.76C1152.73 114.2 1142.66 114.4 1132.58 114.72C1122.5 114.95 1112.43 115.16 1102.35 115.29L1072.12 115.63L1041.89 115.76L1040.24 115.77L1039.07 114.59L1027.28 102.82L1032.95 102.82L999.83 135.97L996.98 138.81L994.13 135.97L973.06 114.91L978.77 114.91L968.87 124.81L968.87 119.09L978.48 128.69L972.75 128.69L991.88 109.54L991.88 115.28L972.08 95.49L977.84 95.49L958.7 114.64L957.51 115.84L955.81 115.84L740.98 115.93L743.93 114.7L712.89 145.76L709.93 148.72L706.97 145.76L616.6 55.47L571.42 10.32L570.2 9.33L570.02 9.18L569.92 9.17L569.75 9.12C569.63 9.08 569.53 9.03 569.44 8.96C569.17 8.85 568.73 8.77 568.39 8.63C568.02 8.57 567.63 8.58 567.25 8.51C565.69 8.49 564.25 9.11 563.11 10.24L551.83 21.53L529.25 44.12L529.25 38.05L631.66 140.38L625.5 140.38L654.49 111.36L654.49 117.54L625.91 88.99L632.11 88.99L615.14 105.97L615.14 99.75L670.34 154.91L664.08 154.91L722.01 96.93L722.01 103.24L679.77 61.03L686.11 61.03L672.14 75.01L672.16 68.68L700.05 96.92L703.2 100.1L700.03 103.27L643.58 159.78L615.35 188.03L601.24 202.15L594.18 209.21L593.3 210.1L592.86 210.54L592.75 210.65L592.29 211.06L592.05 211.26C591.33 211.81 591.03 212.24 589.56 213.04C588.95 213.37 588.3 213.74 587.69 213.98L585.95 214.51C584.8 214.9 583.56 214.87 582.36 215C579.96 214.88 577.5 214.44 575.4 213.17C574.28 212.66 573.38 211.83 572.45 211.06C571.91 210.62 571.76 210.41 571.43 210.1L570.54 209.21L563.49 202.15L549.37 188.03L521.15 159.78L464.69 103.27L461.52 100.1L464.67 96.92L492.56 68.68L492.58 75.01L478.61 61.03L484.95 61.03L442.71 103.24L442.71 96.93L500.64 154.91L494.38 154.91L549.58 99.75L549.58 105.97L532.61 88.99L538.81 88.99L510.23 117.54L510.23 111.36L539.22 140.38L533.06 140.38L635.47 38.05L635.47 44.12L612.9 21.53L601.61 10.24C599.37 7.91 595.58 7.94 593.31 10.32L548.12 55.47L457.76 145.76L454.79 148.72L451.83 145.76L420.8 114.7L423.75 115.93L208.91 115.84L207.22 115.84L206.02 114.64L186.89 95.49L192.65 95.49L172.84 115.28L172.84 109.54L191.97 128.69L186.25 128.69L195.85 119.09L195.85 124.81L185.95 114.91L191.67 114.91L170.59 135.97L167.74 138.81L164.9 135.97L131.78 102.82L137.44 102.82L125.66 114.59L124.48 115.77L122.83 115.76L92.6 115.63L62.37 115.29C52.3 115.16 42.22 114.95 32.14 114.72C22.07 114.4 11.99 114.2 1.91 113.76C0.81 113.72 -0.05 112.78 0 111.68C0.05 110.63 0.89 109.81 1.91 109.76C11.99 109.33 22.07 109.13 32.14 108.81C42.22 108.58 52.3 108.37 62.37 108.23L92.6 107.89L122.83 107.77L120 108.94L131.77 97.15L134.61 94.32L137.44 97.15L170.59 130.27L164.9 130.27L185.95 109.2L188.81 106.34L191.67 109.2L201.57 119.09L204.43 121.95L201.57 124.81L191.97 134.42L189.11 137.28L186.25 134.42L167.1 115.28L164.23 112.41L167.1 109.54L186.89 89.73L189.76 86.86L192.65 89.73L211.79 108.87L208.91 107.67L423.75 107.58L425.47 107.58L426.7 108.81L457.75 139.84L451.83 139.84L542.13 49.47L587.27 4.29C589.79 1.69 593.64 -0.06 597.41 -0.03C598.36 0 599.31 0.11 600.25 0.22C601.17 0.48 602.07 0.72 602.99 1.06C603.94 1.52 605.01 2.1 605.79 2.64L606.57 3.27L606.95 3.58L607.15 3.74L607.24 3.82L607.65 4.19L618.95 15.48L641.54 38.05L644.58 41.09L641.54 44.12L539.22 146.53L536.14 149.61L533.06 146.53L504.05 117.54L500.96 114.46L504.05 111.36L532.61 82.78L535.71 79.68L538.81 82.78L555.8 99.75L558.9 102.86L555.8 105.97L500.64 161.17L497.51 164.3L494.38 161.17L436.4 103.24L433.25 100.09L436.4 96.93L478.61 54.69L481.78 51.52L484.95 54.69L498.94 68.66L502.09 71.81L498.96 74.99L471.09 103.25L471.07 96.9L527.57 153.35L555.82 181.58L569.95 195.69L577.01 202.75L577.89 203.63C578.16 203.89 578.55 204.32 578.68 204.37C579.06 204.62 579.34 205.01 579.78 205.15C580.53 205.67 581.48 205.73 582.36 205.85C582.8 205.72 583.28 205.85 583.7 205.64C583.91 205.57 584.13 205.51 584.35 205.47C584.51 205.4 584.57 205.32 584.71 205.28C584.8 205.44 585.67 204.65 586.27 204.18L586.51 203.98C586.84 203.69 586.13 204.32 586.22 204.24L586.28 204.18L586.39 204.07L586.83 203.63L587.71 202.75L594.78 195.69L608.9 181.58L637.15 153.35L693.65 96.9L693.63 103.25L665.77 74.99L662.63 71.81L665.79 68.66L679.77 54.69L682.94 51.52L686.11 54.69L728.32 96.93L731.48 100.09L728.32 103.24L670.35 161.17L667.21 164.3L664.08 161.17L608.93 105.97L605.82 102.86L608.93 99.75L625.91 82.78L629.01 79.68L632.11 82.78L660.67 111.36L663.76 114.46L660.67 117.54L631.66 146.53L628.58 149.61L625.5 146.53L523.18 44.12L520.15 41.09L523.18 38.05L545.77 15.48L557.07 4.19C559.69 1.54 563.52 -0.11 567.31 -0.03C568.25 0.04 569.21 0.1 570.13 0.27C571.06 0.55 571.94 0.74 572.89 1.15C573.38 1.4 573.87 1.65 574.34 1.93L575.05 2.34L575.4 2.56L575.6 2.72L576.37 3.35L576.76 3.67L576.95 3.83L577.36 4.2L577.45 4.29L622.6 49.47L712.89 139.84L706.97 139.84L738.03 108.81L739.25 107.58L740.98 107.58L955.81 107.67L952.93 108.87L972.08 89.73L974.96 86.86L977.84 89.73L997.63 109.54L1000.5 112.41L997.63 115.28L978.48 134.42L975.61 137.28L972.75 134.42L963.15 124.81L960.29 121.95L963.15 119.09L973.06 109.2L975.92 106.34L978.77 109.2L999.83 130.27L994.13 130.27L1027.28 97.15L1030.12 94.32L1032.95 97.15L1044.72 108.94L1041.89 107.77L1072.12 107.89L1102.35 108.23C1112.43 108.37 1122.5 108.58 1132.58 108.81C1142.66 109.13 1152.73 109.33 1162.81 109.76C1163.91 109.81 1164.77 110.75 1164.72 111.85C1164.68 112.89 1163.83 113.72 1162.81 113.76Z" />
	</g>
</svg>